<svg width="37" height="34" viewBox="0 0 37 34" fill="none" xmlns="http://www.w3.org/2000/svg">
<path d="M25.1092 30.2963C27.0821 28.1876 28.3087 25.2457 28.3087 21.9964C28.3087 15.5972 23.5511 10.3905 17.7037 10.3905H12.1822C12.8546 6.28148 16.0515 3.15955 19.8825 3.15955H21.6825C28.4846 3.15955 34.02 9.36867 34.02 17.0007C34.02 23.2987 30.2508 28.6279 25.1103 30.2966L25.1092 30.2963ZM12.1181 13.1535H17.7056C21.6761 13.1535 24.9667 16.5122 25.4681 20.8472H19.8806C15.9101 20.8472 12.6195 17.4889 12.1181 13.1535ZM17.7056 30.8412H15.9056C9.10122 30.8412 3.56809 24.6321 3.56809 17.0004C3.56809 10.702 7.33646 5.3728 12.4773 3.70446C10.5056 5.81164 9.27747 8.75355 9.27747 12.0028C9.27747 18.4024 14.0351 23.6087 19.8825 23.6087H25.404C24.7316 27.7193 21.5347 30.8412 17.7056 30.8412ZM21.6825 0.396919H15.5366V0.402148C7.37359 0.617272 0.793091 7.98007 0.793091 17.0004C0.793091 26.1555 7.57159 33.6034 15.9056 33.6034H22.3353V33.587C30.3652 33.2094 36.7931 25.915 36.7931 17.0004C36.7931 7.84449 30.0146 0.396545 21.6806 0.396545" fill="#BEEEDE"/>
</svg>
