<svg width="126" height="38" viewBox="0 0 126 38" fill="none" xmlns="http://www.w3.org/2000/svg">
<path d="M23.3238 30.5613C25.2171 28.5297 26.3937 25.7008 26.3937 22.5734C26.3937 16.4139 21.8295 11.3997 16.221 11.3997H10.9275C11.5717 7.44448 14.639 4.43902 18.3124 4.43902H20.0392C26.5639 4.43902 31.8727 10.4144 31.8727 17.7598C31.8727 23.8216 28.2577 28.95 23.3264 30.5575L23.3238 30.5613ZM10.8627 14.0624H16.221C20.0329 14.0624 23.1879 17.2938 23.6682 21.4649H18.3099C14.498 21.4649 11.3442 18.2334 10.8627 14.0624ZM16.221 31.0768H14.4942C7.96943 31.0768 2.66071 25.1091 2.66071 17.7573C2.66071 11.7019 6.27695 6.57217 11.207 4.97231C9.31504 7.00388 8.13843 9.83286 8.13843 12.9602C8.13843 19.1197 12.7013 24.1339 18.3099 24.1339H23.6072C22.9617 28.0891 19.8956 31.0933 16.221 31.0933V31.0768ZM20.0329 1.79415H14.1422C6.31252 1.99604 0 9.08244 0 17.7636C0 26.5743 6.50185 33.7433 14.4942 33.7433H20.6631V33.7268C28.3657 33.3636 34.5308 26.3432 34.5308 17.7636C34.5308 8.95166 28.029 1.784 20.0367 1.784" fill="#BEEEDE"/>
<path d="M50.304 28.2455H48.6141L47.9228 28.2823H47.9025L47.9749 27.7199V24.3939L47.6484 23.5434H47.6674L48.5391 23.8151H50.2837C52.1744 23.8151 52.9012 24.5768 52.9012 26.0125C52.9012 27.4825 52.1922 28.2455 50.3027 28.2455H50.304ZM50.3205 21.9096H45.6509V33.9695H47.9775V30.415L47.9228 29.8158L48.6496 30.1776L50.3396 30.1598C53.3561 30.1598 55.3561 28.672 55.3561 26.0201C55.3561 23.3682 53.6471 21.9096 50.3167 21.9096" fill="#BEEEDE"/>
<path d="M65.4499 27.6106C65.4499 25.4132 63.9963 24.0562 61.197 24.0562C59.4347 24.0562 57.8527 24.5106 56.5808 25.7065L58.253 26.995C58.9442 26.1419 59.7256 25.7065 61.0878 25.7065C62.5782 25.7065 63.3063 26.3234 63.3063 27.8315V27.9762C63.1233 28.3393 62.07 28.3749 60.07 28.5564C57.4715 28.7938 56.3851 29.7916 56.3851 31.5345C56.3851 33.3511 57.6202 34.2766 59.4741 34.2766C61.1106 34.2766 62.3965 33.459 62.9454 31.4444C62.6303 31.7919 62.246 32.0699 61.8171 32.2605C61.3883 32.4511 60.9244 32.5502 60.455 32.5514C59.3838 32.5514 58.8565 32.0982 58.8565 31.1727C58.8565 30.2994 59.3114 29.8284 60.3101 29.6837C61.3089 29.539 62.3648 29.4476 62.8184 29.247L63.291 28.7024V28.7747L63.3101 31.8443C63.3101 32.7875 63.3457 33.8221 63.5274 33.9681H65.9086C65.6722 33.732 65.4537 31.6437 65.4537 30.6992L65.4499 27.6106Z" fill="#BEEEDE"/>
<path d="M71.4745 30.9697L71.256 32.5489L70.965 30.9697L68.838 24.3418H66.4034L70.1836 34.1293C69.5114 35.7631 69.0565 36.0716 67.8392 36.0716H67.1302V37.8336C67.5418 37.9578 67.9712 38.0132 68.4009 37.9974C70.3068 37.9974 71.2369 37.0161 72.1276 34.5292L75.7807 24.3418H73.4936L71.4745 30.9697Z" fill="#BEEEDE"/>
<path d="M80.3037 25.7218C79.9903 26.1629 79.7281 26.6382 79.5223 27.1385H79.4143L79.1602 24.3457H77.2682V33.9656H79.5045V27.2845C80.0128 26.9925 81.2669 26.5939 82.5756 26.5939H83.1754V24.055H82.7027C81.6303 24.055 80.8488 24.9093 80.3037 25.7256" fill="#BEEEDE"/>
<path d="M91.469 29.19C91.469 30.2614 91.2873 31.169 90.8514 31.7136C90.3965 32.1859 89.6342 32.441 88.7244 32.441C88.3616 32.4374 88.0038 32.3563 87.6751 32.203C87.3463 32.0497 87.0542 31.8279 86.8184 31.5524C86.3813 31.0256 86.145 30.283 86.145 29.1912V29.0821C86.145 27.9751 86.3458 27.1944 86.7625 26.6701C87.1996 26.1801 87.8718 25.8716 88.7625 25.8716C89.7079 25.8716 90.3444 26.2156 90.7625 26.7056C91.2161 27.2515 91.4702 27.9954 91.4702 29.0846L91.469 29.19ZM88.8006 24.0512C85.6558 24.0512 83.8922 26.1407 83.8922 29.1722C83.8922 32.1135 85.4919 34.2741 88.7638 34.2741C91.9264 34.2741 93.7078 32.1681 93.7078 29.1722C93.7078 26.1039 91.981 24.0512 88.8006 24.0512Z" fill="#BEEEDE"/>
<path d="M97.5718 20.2568H95.263V33.9656H97.5718V20.2568Z" fill="#BEEEDE"/>
<path d="M102.003 20.2568H99.6938V33.9656H102.003V20.2568Z" fill="#BEEEDE"/>
<path d="M45.9905 3.28662L45.772 4.34027V13.7101H48.0985V4.30473L47.8622 3.28662L47.9168 3.26885L48.9346 3.75886H51.7884V1.65283H42.0833V3.75886H44.9359L45.9537 3.28662H45.9905Z" fill="#BEEEDE"/>
<path d="M59.6398 6.06546C59.8393 6.24699 59.9117 6.97312 59.9117 8.2083V13.7101H62.2382V7.95314C62.2382 6.10101 62.1302 5.17557 61.5839 4.55862C61.1124 4.05083 60.7122 3.79694 59.5851 3.79694C57.7503 3.79694 56.7681 4.79474 55.9143 5.97533V0H53.6602V13.7101H55.9143V6.08323C56.7823 5.83357 57.6795 5.69954 58.5826 5.68463C59.3285 5.68463 59.4555 5.88393 59.6372 6.06546" fill="#BEEEDE"/>
<path d="M67.9269 8.29834C65.3285 8.53446 64.2421 9.53352 64.2421 11.2765C64.2421 13.0918 65.4772 14.0185 67.331 14.0185C68.9676 14.0185 70.2535 13.201 70.8024 11.1851C70.4876 11.5331 70.1034 11.8115 69.6745 12.0024C69.2456 12.1933 68.7815 12.2924 68.3119 12.2933C67.2408 12.2933 66.7135 11.8389 66.7135 10.9134C66.7135 10.0413 67.1684 9.56907 68.1671 9.42435C69.1658 9.27963 70.2217 9.18823 70.6753 8.98766L71.148 8.44433V8.51669L71.1671 11.585C71.1671 12.5294 71.2026 13.564 71.3843 13.71H73.7655C73.5292 13.4739 73.3106 11.3857 73.3106 10.4412V7.35514C73.3106 5.15771 71.857 3.80066 69.0578 3.80066C67.2954 3.80066 65.7135 4.25512 64.4416 5.45095L66.1137 6.74072C66.805 5.88765 67.5864 5.45095 68.9485 5.45095C70.439 5.45095 71.1671 6.06918 71.1671 7.57602V7.72201C70.9841 8.0838 69.9307 8.12062 67.9308 8.30215" fill="#BEEEDE"/>
<path d="M77.6689 6.08331C77.9231 6.08331 78.8875 5.64789 80.2496 5.64789C80.9218 5.64789 81.2318 5.84719 81.4135 6.06554C81.6498 6.31943 81.7032 6.7739 81.7032 8.20838V13.7102H83.9904V7.95322C83.9904 6.1379 83.8264 5.10329 83.336 4.52569C82.8989 4.05345 82.2458 3.79956 81.336 3.79956C79.6105 3.79956 78.4643 4.90653 77.5927 6.08458L77.4504 4.08265H75.3615V13.7064H77.6689V6.08331Z" fill="#BEEEDE"/>
<path d="M86.0106 0.00128174V13.7089H88.2469V10.5505L89.5912 9.11598L90.1007 7.98997L90.5366 9.78752L92.6992 13.7089H95.2443L92.1909 8.44444L91.3002 7.77162L92.2634 7.15467L95.135 4.08639H92.3549L89.1376 7.75385L88.2469 9.07916V0.00128174H86.0106Z" fill="#BEEEDE"/>
<path d="M101.204 10.7129L100.986 12.2934L100.695 10.7129L98.5683 4.08252H96.1325L99.9126 13.8688C99.2405 15.5038 98.7868 15.8123 97.5696 15.8123H96.8605V17.5768C97.272 17.7019 97.7015 17.7572 98.1312 17.7406C100.037 17.7406 100.966 16.7606 101.857 14.2724L105.511 4.08252H103.224L101.204 10.7129Z" fill="#BEEEDE"/>
<path d="M113.371 8.93444C113.371 10.0059 113.189 10.9135 112.754 11.4581C112.299 11.9304 111.535 12.1842 110.627 12.1842C110.264 12.1801 109.906 12.0987 109.578 11.9455C109.249 11.7923 108.957 11.5707 108.721 11.2956C108.285 10.7688 108.048 10.0262 108.048 8.93571V8.82654C108.048 7.7183 108.248 6.93886 108.666 6.41457C109.103 5.92329 109.775 5.61481 110.666 5.61481C111.61 5.61481 112.247 5.96011 112.666 6.45012C113.12 6.99471 113.374 7.73861 113.374 8.82908L113.371 8.93444ZM110.703 3.79568C107.559 3.79568 105.796 5.88394 105.796 8.91667C105.796 11.8567 107.395 14.0186 110.667 14.0186C113.83 14.0186 115.61 11.9113 115.61 8.91667C115.61 5.84713 113.884 3.79568 110.703 3.79568Z" fill="#BEEEDE"/>
<path d="M125.575 10.4958V4.08252H123.288V11.5088C123.053 11.6536 122.38 12.2172 120.981 12.2172C120.307 12.2172 119.926 12.0725 119.69 11.7805C119.49 11.5088 119.344 11.0188 119.344 9.58434V4.08252H117.057V9.80142C117.057 11.745 117.276 12.6526 117.838 13.2518C118.311 13.7431 118.838 14.0135 119.784 14.0135C121.474 14.0135 122.579 12.871 123.31 11.5622C123.291 12.6882 123.4 13.6136 123.545 13.705H125.793C125.648 13.2873 125.575 11.8338 125.575 10.4907" fill="#BEEEDE"/>
</svg>
