<svg width="21" height="20" viewBox="0 0 21 20" fill="none" xmlns="http://www.w3.org/2000/svg">
<path d="M13.8333 11.6667H15.0833V14.0167L17.1167 15.1917L16.4917 16.275L13.8333 14.7417V11.6667ZM14.6667 10C13.5616 10 12.5018 10.439 11.7204 11.2204C10.939 12.0018 10.5 13.0616 10.5 14.1667C10.5 15.2717 10.939 16.3315 11.7204 17.1129C12.5018 17.8943 13.5616 18.3333 14.6667 18.3333C15.7717 18.3333 16.8316 17.8943 17.613 17.1129C18.3944 16.3315 18.8333 15.2717 18.8333 14.1667C18.8333 13.0616 18.3944 12.0018 17.613 11.2204C16.8316 10.439 15.7717 10 14.6667 10ZM14.6667 8.33333C16.2138 8.33333 17.6975 8.94791 18.7915 10.0419C19.8854 11.1358 20.5 12.6196 20.5 14.1667C20.5 15.7138 19.8854 17.1975 18.7915 18.2915C17.6975 19.3854 16.2138 20 14.6667 20C12.3417 20 10.3333 18.6333 9.39168 16.6667H1.33334V14.1667C1.33334 11.95 5.77501 10.8333 8.00001 10.8333C8.50001 10.8333 9.11668 10.8917 9.76668 11C10.8 9.4 12.6083 8.33333 14.6667 8.33333ZM8.83334 14.1667C8.83334 13.5833 8.91668 13.0167 9.07501 12.5C8.72501 12.4417 8.35834 12.4167 8.00001 12.4167C5.52501 12.4167 2.91668 13.6333 2.91668 14.1667V15.0833H8.90834C8.85834 14.7833 8.83334 14.475 8.83334 14.1667ZM8.00001 3.33333C8.88406 3.33333 9.73191 3.68452 10.357 4.30964C10.9822 4.93476 11.3333 5.78261 11.3333 6.66667C11.3333 7.55072 10.9822 8.39857 10.357 9.02369C9.73191 9.64881 8.88406 10 8.00001 10C7.11596 10 6.26811 9.64881 5.64299 9.02369C5.01787 8.39857 4.66668 7.55072 4.66668 6.66667C4.66668 5.78261 5.01787 4.93476 5.64299 4.30964C6.26811 3.68452 7.11596 3.33333 8.00001 3.33333V3.33333ZM8.00001 4.91667C7.53588 4.91667 7.09076 5.10104 6.76257 5.42923C6.43438 5.75742 6.25001 6.20254 6.25001 6.66667C6.25001 7.1308 6.43438 7.57591 6.76257 7.9041C7.09076 8.23229 7.53588 8.41667 8.00001 8.41667C8.46414 8.41667 8.90926 8.23229 9.23745 7.9041C9.56564 7.57591 9.75001 7.1308 9.75001 6.66667C9.75001 6.20254 9.56564 5.75742 9.23745 5.42923C8.90926 5.10104 8.46414 4.91667 8.00001 4.91667V4.91667Z" fill="#37474F"/>
</svg>
