<svg width="21" height="20" viewBox="0 0 21 20" fill="none" xmlns="http://www.w3.org/2000/svg">
<path d="M3.83335 4.99998H2.16669V16.6666C2.16669 17.5916 2.91669 18.3333 3.83335 18.3333H15.5V16.6666H3.83335V4.99998ZM15.9167 11.875C15.9167 10.625 13.4167 9.99998 12.1667 9.99998C10.9167 9.99998 8.41669 10.625 8.41669 11.875V12.5H15.9167V11.875ZM12.1667 8.54165C13.2 8.54165 14.0417 7.69998 14.0417 6.66665C14.0417 5.63331 13.2 4.79165 12.1667 4.79165C11.1334 4.79165 10.2917 5.63331 10.2917 6.66665C10.2917 7.69998 11.1334 8.54165 12.1667 8.54165ZM17.1667 1.66665H7.16669C6.25002 1.66665 5.50002 2.41665 5.50002 3.33331V13.3333C5.50002 14.2583 6.25002 15 7.16669 15H17.1667C18.0917 15 18.8334 14.2583 18.8334 13.3333V3.33331C18.8334 2.40831 18.0834 1.66665 17.1667 1.66665ZM17.1667 13.3333H7.16669V3.33331H17.1667V13.3333Z" fill="#37474F"/>
</svg>
