<svg width="24" height="24" viewBox="0 0 24 24" fill="none" xmlns="http://www.w3.org/2000/svg">
<path d="M14.8333 9H16.8333V11H14.8333V9ZM16.8333 5H14.8333V7H16.8333V5ZM10.8333 15H12.8333V13H10.8333V15ZM12.8333 5H10.8333V7H12.8333V5ZM10.8333 11H12.8333V9H10.8333V11ZM8.83334 5H6.83334V7H8.83334V5ZM8.83334 9H6.83334V11H8.83334V9ZM14.3833 21H12.8333V17.5H10.8333V21H4.83334V3H18.8333V11.03C19.5433 11.09 20.2233 11.31 20.8333 11.63V1H2.83334V23H15.7433C15.3333 22.44 14.8333 21.76 14.3833 21ZM6.83334 19H8.83334V17H6.83334V19ZM8.83334 13H6.83334V15H8.83334V13ZM21.8333 16.5C21.8333 19.1 18.3333 23 18.3333 23C18.3333 23 14.8333 19.1 14.8333 16.5C14.8333 14.6 16.4333 13 18.3333 13C20.2333 13 21.8333 14.6 21.8333 16.5ZM19.5333 16.6C19.5333 16 18.9333 15.4 18.3333 15.4C17.7333 15.4 17.1333 15.9 17.1333 16.6C17.1333 17.2 17.6333 17.8 18.3333 17.8C19.0333 17.8 19.6333 17.2 19.5333 16.6Z" fill="#37474F"/>
</svg>
