<svg width="16" height="16" viewBox="0 0 16 16" fill="none" xmlns="http://www.w3.org/2000/svg">
<path d="M14 1.33333H2.00001C1.26667 1.33333 0.666672 1.93333 0.666672 2.66666V10.6667C0.666672 11.4067 1.26667 12 2.00001 12H6.66667V13.3333H5.33334V14.6667H10.6667V13.3333H9.33334V12H14C14.74 12 15.3333 11.4067 15.3333 10.6667V2.66666C15.3333 1.93333 14.74 1.33333 14 1.33333ZM14 10.6667H2.00001V2.66666H14V10.6667ZM10.56 5.46666L9.88667 6.14L8.50667 4.78666L9.18 4.10666C9.31334 3.96666 9.54 3.95999 9.7 4.10666L10.56 4.93999C10.7 5.07999 10.7067 5.30666 10.56 5.46666ZM5.33334 7.94L8.11334 5.14666L9.49334 6.53333L6.72 9.33333H5.33334V7.94Z" fill="#37474F"/>
</svg>
