<svg width="16" height="16" viewBox="0 0 16 16" fill="none" xmlns="http://www.w3.org/2000/svg">
<path d="M14 10.6667V2.66666H1.99999V10.6667H14ZM14 1.33333C14.3536 1.33333 14.6927 1.4738 14.9428 1.72385C15.1928 1.9739 15.3333 2.31304 15.3333 2.66666V10.6667C15.3333 11.0203 15.1928 11.3594 14.9428 11.6095C14.6927 11.8595 14.3536 12 14 12H9.33332V13.3333H10.6667V14.6667H5.33332V13.3333H6.66666V12H1.99999C1.25999 12 0.666656 11.4 0.666656 10.6667V2.66666C0.666656 1.92666 1.25999 1.33333 1.99999 1.33333H14ZM3.33332 3.99999H9.33332V7.33333H3.33332V3.99999ZM9.99999 3.99999H12.6667V5.33333H9.99999V3.99999ZM12.6667 6V9.33333H9.99999V6H12.6667ZM3.33332 8H5.99999V9.33333H3.33332V8ZM6.66666 8H9.33332V9.33333H6.66666V8Z" fill="#37474F"/>
</svg>
